PathFileType	3	(X/Y/Z)	results
DataRate	CameraRate	NumFrames	NumMarkers	Units	OrigDataRate	OrigDataStartFrame	OrigNumFrames
30.0	30.0	4	85	mm	30.0	1	478
Frame#	Time	head			nose			neck			shoulder_r			elbow_r			wrist_r			shoulder_l			elbow_l			wrist_l			hip_r			knee_r			ankle_r			hip_l			knee_l			ankle_l			heel_r			heel_l			mtoe_r			ltoe_r			mtoe_l			ltoe_l			asis_l			asis_r			psi_r			psi_l			mhnd_r			lhnd_r			mhnd_l			lhnd_l			l_lat_knee			r_med_wrist			l_lat_ankle			r_med_ankle			r_lat_knee			xiphoid			l_med_ankle			r_med_knee			l_med_elbow			navel			r_lat_elbow			r_lat_wrist			l_med_wrist			l_lat_elbow			l_med_knee			r_med_elbow			r_lat_ankle			l_lat_wrist			chin			T10			r_eye			l_eye			l_ear			r_ear			spinal_cord_8			spinal_cord_12			spinal_cord_27			spinal_cord_33			up_arm_r_0			up_arm_r_5			up_arm_l_0			up_arm_l_5			front_torso_11			front_torso_7			front_torso_4			front_torso_1			front_torso_10			thigh_r_2			thigh_r_3			thigh_l_1			thigh_l_5			shank_l_0			shank_l_4			shank_r_1			shank_r_2			foot_r_1			foot_r_3			foot_r_5			foot_r_6			foot_r_7			foot_l_1			foot_l_7			foot_l_0			foot_l_4			foot_l_5			foot_l_6			
		X1	Y1	Z1	X2	Y2	Z2	X3	Y3	Z3	X4	Y4	Z4	X5	Y5	Z5	X6	Y6	Z6	X7	Y7	Z7	X8	Y8	Z8	X9	Y9	Z9	X10	Y10	Z10	X11	Y11	Z11	X12	Y12	Z12	X13	Y13	Z13	X14	Y14	Z14	X15	Y15	Z15	X16	Y16	Z16	X17	Y17	Z17	X18	Y18	Z18	X19	Y19	Z19	X20	Y20	Z20	X21	Y21	Z21	X22	Y22	Z22	X23	Y23	Z23	X24	Y24	Z24	X25	Y25	Z25	X26	Y26	Z26	X27	Y27	Z27	X28	Y28	Z28	X29	Y29	Z29	X30	Y30	Z30	X31	Y31	Z31	X32	Y32	Z32	X33	Y33	Z33	X34	Y34	Z34	X35	Y35	Z35	X36	Y36	Z36	X37	Y37	Z37	X38	Y38	Z38	X39	Y39	Z39	X40	Y40	Z40	X41	Y41	Z41	X42	Y42	Z42	X43	Y43	Z43	X44	Y44	Z44	X45	Y45	Z45	X46	Y46	Z46	X47	Y47	Z47	X48	Y48	Z48	X49	Y49	Z49	X50	Y50	Z50	X51	Y51	Z51	X52	Y52	Z52	X53	Y53	Z53	X54	Y54	Z54	X55	Y55	Z55	X56	Y56	Z56	X57	Y57	Z57	X58	Y58	Z58	X59	Y59	Z59	X60	Y60	Z60	X61	Y61	Z61	X62	Y62	Z62	X63	Y63	Z63	X64	Y64	Z64	X65	Y65	Z65	X66	Y66	Z66	X67	Y67	Z67	X68	Y68	Z68	X69	Y69	Z69	X70	Y70	Z70	X71	Y71	Z71	X72	Y72	Z72	X73	Y73	Z73	X74	Y74	Z74	X75	Y75	Z75	X76	Y76	Z76	X77	Y77	Z77	X78	Y78	Z78	X79	Y79	Z79	X80	Y80	Z80	X81	Y81	Z81	X82	Y82	Z82	X83	Y83	Z83	X84	Y84	Z84	X85	Y85	Z85	
1	0.03333333333333333	-37.48110139340599	2068.7559819973612	1811.0130428992052	-44.579881831350185	1838.1378765225165	1672.804171317342	-23.106874165117752	1662.5011780176067	1856.2384315087281	166.03718115375864	1668.677665970804	1804.0665890999878	259.0730547178353	1543.4431819552294	1534.265430479704	85.29947875747338	1749.388843952196	1638.5097731620333	-203.40910678353782	1614.403212049696	1887.1770905313322	-366.1471714636035	1532.1479070741696	1632.2739236148275	-159.72755199086345	1746.612186795066	1670.358093027436	76.05749640626775	1134.4126537760703	1714.8243067794501	166.41345269701208	654.7460087539498	1739.0570803052951	272.7704064963375	170.29147396281303	1758.9237653517769	-101.39517060212714	1118.1121758486995	1801.2710742360744	-82.10780962962738	634.4250257688191	1866.0284446554758	-70.45794488796457	156.06010833401123	1923.931435913973	280.2231559927146	108.05206402660788	1771.593410268414	-63.89544528914916	86.2723988024588	1949.68869680558	222.24894855550855	66.75047613737227	1529.4731008963797	308.0051065084185	61.169371538384475	1580.5599353765808	-170.46611419439196	75.45536151747496	1725.0166147886832	-219.01393220408775	64.65912302925516	1820.501701436035	-160.29170512771637	1183.6928723307274	1793.5592052759976	101.06309748884412	1204.0525535886861	1669.455571304605	75.1023530178715	1194.684321946808	1837.8510887145537	-16.031905900083075	1187.0866949675615	1875.689761969149	30.06304453722887	1797.5903592170623	1635.8194134711594	46.76494510522638	1812.2145086452053	1684.5659315587777	-110.13609515235694	1800.6372737474787	1649.4632566038372	-101.78044934256162	1805.232364383843	1702.0447709301884	-136.8230612258256	628.7257532281141	1897.9426556750316	81.27510818536373	1748.6029890930893	1602.3912387029427	-126.02034324610983	140.3480924956781	1960.443338631301	231.0248205171412	148.20491845131124	1745.9602655185013	221.5797966001244	652.8639905205109	1737.7802073706207	-39.024155884333325	1497.0982367320557	1723.9722528219268	-44.52269495375315	138.69907673055027	1893.5348308318323	116.78306425369564	637.8995740713062	1728.8036623312175	-339.8671098084929	1498.679019439621	1639.0893017394608	-32.98893803015747	1264.1456726859667	1666.5341537507068	288.8405204298895	1580.5984968686914	1536.265324506208	97.48890541458601	1730.1126812358093	1671.475268885239	-178.73144437234328	1753.490834021978	1633.8258721546567	-391.43354479978933	1566.6487880414622	1653.3744662414983	-52.73032316599524	626.5958515370788	1811.3325449413694	227.9901563740997	1514.4361898789557	1545.3055496419356	336.157824874566	160.00194223675535	1750.8594255306546	-167.46228265489347	1733.8980532668122	1707.6866834105365	-37.615524097993806	1744.495027974882	1703.7190795790516	17.86922063506833	1475.4713450403772	1929.2413473334982	-4.799279044052158	1879.4853763482554	1666.7168695423743	-91.63259878632587	1875.7887107562306	1675.0545098409143	-145.34587437900564	1875.9972102588142	1809.7436070767346	70.50603361857871	1881.477559593674	1792.5609716015642	-12.502442147249303	1717.6173192866402	1918.6180008021158	9.019007925444992	1582.7100959106185	1949.4942323201644	35.97962008342722	1316.824200199967	1879.466800771488	14.503002713812018	1467.357070355444	1913.8701097187945	188.77163634791128	1648.5825182181254	1643.418241830846	257.6562149461176	1572.1106580607411	1665.5506874384107	-262.0487421878657	1619.3172547315862	1845.312344681566	-306.9024672054082	1507.6299618262992	1709.747043532846	31.131651341979623	1292.8479617939572	1698.5734105559493	-41.49151784240297	1409.1289631254856	1674.8436802112674	-116.0671416352657	1539.166415727407	1746.1274126907222	-104.29071642673021	1315.959315152533	1735.9162999693747	41.27843552993375	1601.6228961263957	1702.778920229719	103.44670975087148	869.4459973327085	1723.330026003406	229.80300988030072	847.8368667302916	1733.7378961795882	-40.98046418832955	769.4444082987801	1811.7376257660612	-213.31337041303968	988.2094697047902	1870.7654693499032	-153.14691811438257	273.13649357327995	1937.8089908930124	-26.96476995965693	446.8382973810695	1855.6671401565854	284.98633141371874	462.931599960629	1743.6759326974266	171.49776868526044	390.7338743032234	1746.9012402670155	251.1150283833863	58.08398283860057	1545.1659206983654	281.6373390292786	59.048495155756235	1557.636857961918	229.98121306673843	92.44541543209688	1619.841145043968	274.0888726939107	96.49953189474131	1624.9671584496732	309.30683954040853	78.97759034047186	1633.456352333645	-205.0470862210243	63.633820619625496	1775.9007009189309	-168.86540270775484	101.5855125587952	1885.9608786856847	-215.4671025296465	64.21034519346809	1791.1766059602958	-191.9148170725254	62.918899018999014	1757.7632640262077	-168.67207253099144	82.81940837933517	1817.3012439347287	-123.74212821946404	96.69618927712767	1829.9648832394846	
2	0.06666666666666667	-43.9315623195514	2070.6209457843893	1808.3857333614753	-36.098268296271534	1842.1445302136042	1666.7031216086018	-24.84460339043873	1663.5404324747085	1855.3949496033936	174.43461138085638	1654.8329879513037	1794.5116539721128	232.09795350607413	1537.3133251851564	1511.6758663008802	99.18769075207872	1758.3521032562967	1641.8852170487135	-204.44840664229085	1624.2751664079947	1882.6960375978074	-370.1868012064884	1556.1496461007966	1625.5677905173875	-154.5188326033743	1760.3334696954482	1668.5873679234521	81.34333923475096	1132.0419655976596	1723.4152210473467	167.30491087976665	650.8798866204548	1733.692984825733	268.6131139191031	165.47854329065237	1756.6029600869272	-99.78564629366917	1119.781977405284	1802.5996987164	-81.4895299448334	635.7481989464815	1865.1642817309976	-77.91538955644826	157.73959281137473	1926.9418501425776	275.55528863886684	103.03840733304678	1770.0757494746517	-73.07754816859705	88.1393954639001	1953.4565296879582	218.78292331842516	61.44720601760436	1527.7203397772103	305.22168816163463	62.16053572341418	1577.9494459379607	-171.5822464179209	76.22834553375866	1725.187365067079	-223.57232590923476	66.33507470625011	1818.9423969206805	-157.59784079073765	1185.687903830922	1790.6305098357484	108.99590324249716	1200.1853619945912	1677.3160765727825	75.80590346253643	1195.6318068032583	1844.6375137859297	-16.92953803949837	1189.9312219652984	1878.7341925074195	52.14399701693276	1814.459164182692	1646.421335259075	73.74433255489122	1822.4438793615932	1694.7815677120511	-102.6070900494942	1812.6221117757934	1648.9484856954991	-94.03711364989948	1815.5549564633	1701.614425830057	-137.05140138796958	629.8044800885884	1895.5131872842462	92.99405154409399	1761.0652216660321	1606.1691215217688	-134.74750861543328	143.0385230261448	1961.8868838882763	225.76466561108126	143.72365986264745	1747.1532121714986	222.13549372707882	648.5682602451036	1728.2705042478833	-40.89833659282623	1496.7292960679367	1724.9259598449182	-51.31560928571049	139.80509163495748	1897.4664101101105	116.77636299009086	634.942936487313	1727.4511423984172	-345.4462369313358	1521.3681606849034	1631.518438438683	-33.24159066839493	1263.3145763972004	1669.5960487841712	267.3771407813751	1569.2474830509739	1514.1673566077752	110.09711335441233	1734.8832506333301	1672.4968804242897	-173.21586826391126	1768.9344896991956	1632.262305120747	-393.9454437126375	1591.1809293299614	1647.551431360962	-50.55580344274224	628.2957498196251	1811.289249914974	197.49704393249968	1512.6396921791513	1522.785559403869	331.1200398730678	154.11305942169983	1744.2505177066191	-162.79091169828732	1747.060359003862	1705.6048793177235	-26.582370198567645	1748.3726672724517	1696.5276470788099	19.10863276881363	1477.6471567320586	1929.5598169752077	2.1819716314794153	1885.1427727457651	1662.837670395732	-84.69420736735775	1877.84164898479	1667.573714536148	-143.73773294524378	1873.7455381904035	1799.9496803487966	72.229094961522	1888.1326676734936	1791.6633587264785	-13.937217778962566	1719.3549003212504	1917.0976869022206	9.425567889899803	1584.9770856816715	1948.92937839823	38.1707938865342	1318.7280563111206	1881.0236227015653	15.61077998275348	1469.3525005205931	1914.3147677203099	185.0820558646658	1643.5184511766897	1631.7628442068067	242.23864756164284	1556.0134937364664	1644.367690977973	-262.72348216578956	1632.9155484530881	1840.9255818695924	-312.25806843448225	1526.9656410809193	1702.416373471659	31.021447695461216	1292.9804321459221	1700.4502909729326	-43.13980818302606	1408.2750986474282	1676.6649156740284	-118.05618364560908	1538.2101311982296	1747.7779050857068	-104.09449079655606	1315.049141261436	1739.4951239126215	38.00117457512249	1601.86962386623	1701.6140194786683	105.97281435487385	866.6824147638929	1726.1616788635943	232.47356600179268	843.471405603756	1726.2035826534043	-39.07390180267204	771.1584771332696	1812.8191272321433	-213.3821472624614	989.3116932237316	1868.1985354278486	-159.42349598371723	275.98786037619203	1937.463666083257	-28.552077474040836	447.3839548539498	1857.8547129657652	283.4412468136218	457.5256734910396	1734.051490448778	169.56455260363526	387.0468407667189	1746.9898335735436	248.4328199781091	54.952133885887406	1542.9951860984838	278.89228174911597	58.250540614370976	1555.2184307200982	225.2540643745307	86.04322260879758	1618.4923702941564	268.9161926527683	93.69615361083353	1623.3140621971552	305.5645886664765	79.04421372463196	1631.1629961773513	-208.02171669261264	64.92881815954291	1774.8790984242073	-175.62042006844692	103.4899615141715	1885.9010875669267	-218.97938039589837	65.66208737513726	1789.7671579926046	-194.25173297565692	64.02424655373218	1757.2296360650898	-173.05951487875308	84.23735789973303	1817.4238759893444	-128.54449126498764	97.99387512344636	1831.5943950660342	
3	0.1	-48.72540348764819	2071.88869954556	1805.8505077040538	-30.80042119593735	1844.9875240117346	1662.5628704437006	-25.93393038329059	1663.9361046854197	1854.303578289911	177.59604036710334	1647.9220359947008	1790.8934774699665	217.32777131258393	1538.2153902719333	1501.8989162933578	106.14297329503971	1763.8541842476104	1644.0355749064377	-204.5029479692907	1630.4557921055846	1880.1272857798033	-371.2840169717038	1565.980303172927	1622.732212505662	-153.4652365769016	1766.5087132561289	1671.6987949486534	84.88369278125589	1130.4190331455816	1730.032012843278	168.71203655516683	648.6392028680075	1729.719071822257	265.7892802502817	162.521566213128	1755.5712509477908	-98.71509142088459	1120.870545496121	1803.7104427658585	-80.58657785015785	636.5182711749688	1863.9810043704183	-81.10778713952563	158.77001102887627	1927.8386448361393	272.3178626558904	99.9829004942747	1769.752077066867	-77.02594037773731	89.34075447727402	1954.7535296891467	216.18452474348487	58.23739666808603	1527.2743762660236	302.8250200834168	63.41243022826676	1576.8906599589704	-173.21538836725307	76.33113074907925	1725.5588526343213	-226.24462380186776	67.47771657020212	1818.834618070188	-155.48825656978335	1187.1507039381372	1789.1210367146768	114.60639662157611	1197.6995740934142	1683.9537362241786	76.22137252921934	1195.6222581277425	1850.2097105082787	-17.573918426711657	1191.2263837423188	1881.4836926785813	63.89667844375599	1823.2936793455096	1652.0283696809834	87.35826021853646	1827.652473896783	1699.9824867662924	-100.67732613929203	1818.4593037261016	1653.5552158584558	-92.62886498354663	1820.326365944615	1706.3518414646826	-136.42650115552024	630.391835518004	1893.755350291806	99.23126396396609	1768.4381623496038	1608.6438092438295	-138.42871727826912	144.62406718202914	1962.209705828841	222.26657225863238	141.1204077426359	1748.7648924330658	222.99255705813286	646.2398806369393	1720.5811825600163	-41.67623178905684	1495.7201331132133	1725.6124685654322	-54.31007332507677	140.51938935430053	1898.7389274695322	117.77276288286093	633.1368285020432	1727.2123340031897	-346.8294321089709	1530.9395224929542	1628.3335005362512	-32.75186482111682	1261.8217706257878	1672.5618524047088	255.1220084074286	1567.1188104052098	1504.5079322710876	115.94940754657672	1738.4205588240313	1673.4267474699436	-171.66358651418935	1776.00973581669	1635.3447373335748	-394.7036002348544	1601.0194279812865	1645.064413821269	-49.08378190595849	629.393438785018	1810.4025521686133	181.1910360938639	1515.916671553109	1513.1390186553094	327.4283392566187	150.21703174492552	1740.1408366668068	-162.29991277538662	1752.6776564859938	1708.3805243912225	-18.321361600297546	1751.3795302494682	1691.8038261564543	19.801383223831113	1479.1031589274305	1930.0246964747687	5.95884578852628	1889.3588583832138	1659.5448711529332	-80.65448850779329	1878.913186266704	1663.0413344831288	-141.2741582262277	1871.6394894685845	1794.5657099397522	74.12787989330948	1893.8181605496322	1789.331982784995	-15.0128076064691	1720.439607036678	1915.3735133756238	9.49594899886643	1586.5520512900914	1948.3873994068167	39.654808175406465	1319.8418235105412	1882.9494675473584	16.261788611422393	1470.6322988760903	1914.8865452490072	182.54331177341325	1642.6623124125997	1627.5642954174139	232.80987159408673	1550.4485480319865	1634.8286147734325	-262.7785576004755	1639.9538762124753	1838.5442204609787	-313.46548056003434	1535.6377891876516	1699.2142210038444	31.503081933410545	1292.238937215815	1702.692951825549	-43.615833388139194	1406.7738400939845	1678.2511708167967	-118.9706172776839	1536.8928192410708	1748.5600683346372	-103.50510694159385	1313.7620349545523	1742.409307855677	36.33262892943127	1601.1651984054508	1700.732279445718	108.18282843718168	864.928469050479	1728.7068909324857	234.23044150381932	841.1009707797378	1719.4633831699525	-37.76083690777668	772.257375130562	1812.7732174328557	-212.83730239421544	989.9606646145018	1867.4959545595407	-161.88298855909528	277.63712038536335	1936.9441352122844	-28.91509636818025	447.75388673336505	1858.068535341152	282.5892363182003	453.96093948354587	1727.272456801717	168.79357205849703	385.05361574105524	1747.3944745815568	246.28600155453574	53.31032780522591	1542.2493003152154	276.59336955757186	58.24601947038462	1554.2978852910862	221.91023228345176	82.00002895370315	1618.318073482893	265.08124651735443	92.15838759700429	1622.9298834534882	302.5915598956147	79.59900070839545	1630.3209746231921	-210.24394995074002	65.63953755946028	1774.948711299257	-178.75656908722877	104.83201213488579	1886.0125787628037	-221.3515897001	66.55500294696621	1789.715046579607	-196.29645895406955	64.51401825909545	1757.4519994903635	-175.60449216300466	85.04640858556367	1817.7121849863468	-131.1522774425474	98.6262813455466	1832.2456073855026	
4	0.13333333333333333	-49.6777278482551	2072.0979777152374	1805.7895721321777	-29.619132516675688	1846.5807614040955	1660.6123241177515	-26.833155552414855	1663.989382863992	1853.8116982755569	171.32788169923595	1645.812335995284	1795.0499415406805	220.78417391042868	1542.7450012273782	1505.1133715570252	106.04816662453261	1767.4553972315116	1645.8920664595128	-201.9901244056977	1631.833997256655	1879.9810277809997	-371.07950072614824	1560.1472992167357	1626.0222958260065	-157.50958263033448	1764.6021504848388	1677.4080372024564	87.47556782607461	1129.7935666892554	1733.9569604076971	169.7290389377273	647.7107331803224	1727.4066546790214	264.53467770017215	161.2762649883286	1755.6215813938234	-97.36158119703957	1120.8731177840739	1804.5533636099126	-80.07217710419616	636.2578476641332	1863.1392916352572	-81.02843973244664	158.62665719898428	1927.8617872161728	270.81339118509675	98.62908251913971	1770.2005353889977	-77.1141499023941	89.08237914495153	1954.8118099603723	215.41350671358967	57.86969658977319	1527.3866161838612	301.9656986433744	64.78474388810402	1576.9449878843952	-173.49174927459896	77.34225586739304	1725.6276306437771	-226.58485460233828	68.9196091964752	1818.9069550450818	-153.82487928948618	1187.0903822939283	1788.5448564213998	118.03377935994585	1196.7374433507075	1687.9348898829362	76.81493157119498	1195.8226034855245	1853.5215558809455	-17.503958849837893	1191.7040475148465	1883.2188063322947	64.18956569740261	1827.281940096503	1652.9864354736985	85.5452900466552	1830.5818992414743	1701.997511384218	-105.67103536921245	1817.7052435518099	1659.873975341975	-97.91911255436567	1819.3759654378405	1712.72152689131	-136.05647176259976	630.1098426101057	1892.6085390510384	100.77130021461775	1772.689497032184	1610.3094788919639	-138.53998905250677	144.5527685627595	1961.9427782010944	220.75019873081115	140.07495943600924	1749.9659421465556	223.50334210838545	645.2735547350368	1715.801218931141	-41.8978605073548	1494.9723766554291	1726.0927053866199	-54.07432166960777	140.31868143094678	1898.9431124412542	118.68727651268577	632.4378321006837	1727.450418409673	-345.57104239184355	1525.8555895225381	1631.5589607723514	-31.90007289719844	1260.8226682125176	1674.3586309857797	258.7878738609487	1571.0937623327907	1509.8763067038842	114.23853355480337	1741.4356029891987	1675.2649225805922	-175.71437253472604	1773.9862223170765	1641.026837447623	-395.0987546518905	1594.7507547882444	1648.3968498219544	-48.26003118832739	629.3245216215806	1809.7314936745097	183.98493159737797	1520.6370742204294	1514.4134639499573	325.74868653830634	148.46282221560918	1738.9622400255778	-166.24820885346836	1750.3532340350926	1713.9525812760814	-15.80987249601696	1752.9103933617548	1689.0444081792045	19.872933269158107	1479.811452569585	1930.5297257980537	6.560922695099676	1891.4367294067317	1657.7639768286845	-79.8946213750517	1879.8672053016771	1661.6100152096308	-139.7462577860994	1870.7875966591687	1793.3736470924705	75.32899739751443	1895.7343040706053	1787.240151031181	-16.121049858213315	1720.8902947601898	1914.548760181905	9.068182292319614	1587.311821719053	1948.2943899534798	40.445630187343056	1320.3832773901925	1884.336331030747	16.358442021490685	1471.2379153347244	1915.4436185096863	182.4513991415303	1644.5053253519368	1631.94530954216	231.31735671287572	1551.5105952221265	1638.799072878752	-261.17670113326665	1639.2913888743233	1839.2778578008893	-311.2014452962532	1532.197662214726	1701.8285304049682	32.238773834071395	1291.7196288396897	1704.2479521906316	-43.45762468722825	1405.7506126581743	1679.2382329684824	-119.36604575106772	1535.9014318228433	1748.8895728109765	-102.83013264092011	1312.8165047329148	1743.9865488831147	35.57506652026055	1600.6494962372383	1700.5317990963645	109.88117122864678	864.2468044007771	1730.3860686142252	235.26295125064055	840.1052704237015	1714.9656780502662	-36.80710771381124	772.167277411264	1812.6829522404232	-211.9621842013125	989.8494245174318	1867.2379794138644	-161.83160957831615	277.52351537582143	1936.306765881974	-28.402122185486302	447.47446155865777	1857.8543434396317	282.39686603920336	452.3399144508472	1724.2709393659338	168.67246992936197	384.30135327267175	1747.5106465811134	245.65446980467283	53.57232027602968	1542.2741939655718	275.8423548619777	59.168440937522504	1554.334087692911	220.6602197552002	80.86260742206592	1618.6565415514697	263.5615519127667	92.08574217689683	1623.3164188991798	301.3944986662311	80.42594378135372	1630.5349560610111	-210.6153187749162	66.97098873869008	1775.0144718316576	-178.69818546919697	105.70185614918229	1886.1175968287757	-221.70912934171568	67.9823839127784	1789.7849438010562	-196.6846743596873	65.72373164293319	1757.512594251389	-175.767247929746	85.96865320978117	1817.7922004255458	-131.17412683646785	99.07345331025935	1832.3300981363564	
